<svg xmlns="http://www.w3.org/2000/svg" width="18" height="21" viewBox="0 0 18 21" stroke="currentColor" fill="none">
    <path d="M12.7 19.5V15.9C12.8252 14.7726 12.502 13.6411 11.8 12.75C14.5 12.75 17.2 10.95 17.2 7.8C17.272 6.675 16.957 5.568 16.3 4.65C16.552 3.615 16.552 2.535 16.3 1.5C16.3 1.5 15.4 1.5 13.6 2.85C11.224 2.4 8.77603 2.4 6.40003 2.85C4.60003 1.5 3.70003 1.5 3.70003 1.5C3.43003 2.535 3.43003 3.615 3.70003 4.65C3.04472 5.5643 2.72666 6.67751 2.80003 7.8C2.80003 10.95 5.50003 12.75 8.20003 12.75C7.84903 13.191 7.58803 13.695 7.43503 14.235C7.28203 14.775 7.23703 15.342 7.30003 15.9M7.30003 15.9V19.5M7.30003 15.9C3.24103 17.7 2.8 14.1 1 14.1" />
</svg>
